<svg width="44" height="44" viewBox="0 0 44 44" fill="none" xmlns="http://www.w3.org/2000/svg">
<g filter="url(#filter0_b_120_708)">
<circle cx="22" cy="22" r="22" fill="white" fill-opacity="0"/>
</g>
<g filter="url(#filter1_b_120_708)">
<g filter="url(#filter2_b_120_708)">
<path d="M16 11C12.6868 11 10 13.7337 10 17.1065C10 19.8291 11.05 26.2909 21.3856 32.8229C21.5707 32.9387 21.7833 33 22 33C22.2167 33 22.4293 32.9387 22.6144 32.8229C32.95 26.2909 34 19.8291 34 17.1065C34 13.7337 31.3132 11 28 11C24.6868 11 22 14.7009 22 14.7009C22 14.7009 19.3132 11 16 11Z" fill="#FF6101"/>
<path d="M16 11C12.6868 11 10 13.7337 10 17.1065C10 19.8291 11.05 26.2909 21.3856 32.8229C21.5707 32.9387 21.7833 33 22 33C22.2167 33 22.4293 32.9387 22.6144 32.8229C32.95 26.2909 34 19.8291 34 17.1065C34 13.7337 31.3132 11 28 11C24.6868 11 22 14.7009 22 14.7009C22 14.7009 19.3132 11 16 11Z" stroke="#FF6101" stroke-width="2" stroke-linecap="round" stroke-linejoin="round"/>
</g>
</g>
<defs>
<filter id="filter0_b_120_708" x="-4" y="-4" width="52" height="52" filterUnits="userSpaceOnUse" color-interpolation-filters="sRGB">
<feFlood flood-opacity="0" result="BackgroundImageFix"/>
<feGaussianBlur in="BackgroundImageFix" stdDeviation="2"/>
<feComposite in2="SourceAlpha" operator="in" result="effect1_backgroundBlur_120_708"/>
<feBlend mode="normal" in="SourceGraphic" in2="effect1_backgroundBlur_120_708" result="shape"/>
</filter>
<filter id="filter1_b_120_708" x="-92" y="-92" width="228" height="228" filterUnits="userSpaceOnUse" color-interpolation-filters="sRGB">
<feFlood flood-opacity="0" result="BackgroundImageFix"/>
<feGaussianBlur in="BackgroundImageFix" stdDeviation="50"/>
<feComposite in2="SourceAlpha" operator="in" result="effect1_backgroundBlur_120_708"/>
<feBlend mode="normal" in="SourceGraphic" in2="effect1_backgroundBlur_120_708" result="shape"/>
</filter>
<filter id="filter2_b_120_708" x="5" y="6" width="34" height="32" filterUnits="userSpaceOnUse" color-interpolation-filters="sRGB">
<feFlood flood-opacity="0" result="BackgroundImageFix"/>
<feGaussianBlur in="BackgroundImageFix" stdDeviation="2"/>
<feComposite in2="SourceAlpha" operator="in" result="effect1_backgroundBlur_120_708"/>
<feBlend mode="normal" in="SourceGraphic" in2="effect1_backgroundBlur_120_708" result="shape"/>
</filter>
</defs>
</svg>
